<svg width="900" height="600" viewBox="0 0 1728 1118" fill="none" xmlns="http://www.w3.org/2000/svg">
<g clip-path="url(#clip0_236_2377)">
<rect width="1200" height="800" transform="translate(0 0.917969)" fill="#232323"/>
<path d="M1382.75 858.409H1307.29V933.675H1382.75V858.409Z" fill="white"/>
<path d="M1382.75 1066.16H1307.29V1141.43H1382.75V1066.16Z" fill="white"/>
<path d="M1657.4 783.008H1571.39V858.273H1657.4C1735.8 858.273 1799.4 921.695 1799.4 999.91C1799.4 1078.12 1735.82 1141.56 1657.4 1141.56H1571.39V858.273H1495.94V1216.83H1657.4C1777.47 1216.83 1874.82 1119.72 1874.82 999.91C1874.82 880.099 1777.47 783.008 1657.4 783.008Z" fill="white"/>
<path fill-rule="evenodd" clip-rule="evenodd" d="M518.118 129.568L370.533 -79.7832H316.629V206.066H365.571V-3.29567L513.156 206.066H567.08V19.51H518.118V129.568ZM-25.4746 64.8913V-79.7167H24.1671V64.8913C24.1671 115.803 65.9976 157.095 117.585 157.095C169.172 157.095 211.012 115.813 211.012 64.8913V-79.7167H260.654V64.8913C260.654 142.858 196.606 206.066 117.585 206.066C38.563 206.066 -25.4844 142.858 -25.4844 64.8913H-25.4746ZM518.089 -79.7136V-79.7832H567.08V-79.7136V-30.1415V-30.0719H518.089V-30.1415V-79.7136Z" fill="white"/>
</g>
<defs>
<clipPath id="clip0_236_2377">
<rect width="1200" height="800" fill="white" transform="translate(0 0.917969)"/>
</clipPath>
</defs>
</svg>
