<svg width="24" height="25" viewBox="0 0 24 25" fill="none" xmlns="http://www.w3.org/2000/svg">
<g id="24pxAgenda">
<path id="Vector" d="M21 18.4194C21 19.2814 20.6576 20.108 20.0481 20.7175C19.4386 21.327 18.612 21.6694 17.75 21.6694H6.25C5.38805 21.6694 4.5614 21.327 3.9519 20.7175C3.34241 20.108 3 19.2814 3 18.4194V6.91943C3 6.05748 3.34241 5.23083 3.9519 4.62134C4.5614 4.01184 5.38805 3.66943 6.25 3.66943H17.75C18.612 3.66943 19.4386 4.01184 20.0481 4.62134C20.6576 5.23083 21 6.05748 21 6.91943V18.4194ZM17 8.41943C17 8.2382 16.9344 8.06309 16.8152 7.9265C16.6961 7.78991 16.5316 7.70108 16.352 7.67643L16.25 7.66943H7.75L7.648 7.67643C7.46849 7.70113 7.30399 7.78999 7.18491 7.92657C7.06583 8.06315 7.00023 8.23823 7.00023 8.41943C7.00023 8.60064 7.06583 8.77571 7.18491 8.9123C7.30399 9.04888 7.46849 9.13773 7.648 9.16243L7.75 9.16943H16.25L16.352 9.16243C16.5316 9.13779 16.6961 9.04895 16.8152 8.91236C16.9344 8.77578 17 8.60067 17 8.41943ZM17 16.9194C17 16.7382 16.9344 16.5631 16.8152 16.4265C16.6961 16.2899 16.5316 16.2011 16.352 16.1764L16.25 16.1694H7.75L7.648 16.1764C7.46849 16.2011 7.30399 16.29 7.18491 16.4266C7.06583 16.5632 7.00023 16.7382 7.00023 16.9194C7.00023 17.1006 7.06583 17.2757 7.18491 17.4123C7.30399 17.5489 7.46849 17.6377 7.648 17.6624L7.75 17.6694H16.25L16.352 17.6624C16.5316 17.6378 16.6961 17.549 16.8152 17.4124C16.9344 17.2758 17 17.1007 17 16.9194ZM17 12.6694C17 12.4882 16.9344 12.3131 16.8152 12.1765C16.6961 12.0399 16.5316 11.9511 16.352 11.9264L16.25 11.9194H7.75L7.648 11.9264C7.46849 11.9511 7.30399 12.04 7.18491 12.1766C7.06583 12.3132 7.00023 12.4882 7.00023 12.6694C7.00023 12.8506 7.06583 13.0257 7.18491 13.1623C7.30399 13.2989 7.46849 13.3877 7.648 13.4124L7.75 13.4194H16.25L16.352 13.4124C16.5316 13.3878 16.6961 13.299 16.8152 13.1624C16.9344 13.0258 17 12.8507 17 12.6694Z" fill="black"/>
</g>
</svg>
