<svg width="24" height="25" viewBox="0 0 24 25" fill="none" xmlns="http://www.w3.org/2000/svg">
<path d="M17.3996 4.26941C18.1953 4.26941 18.9583 4.58548 19.5209 5.14809C20.0835 5.7107 20.3996 6.47376 20.3996 7.26941V18.0694C20.3996 18.8651 20.0835 19.6281 19.5209 20.1907C18.9583 20.7533 18.1953 21.0694 17.3996 21.0694H6.59961C5.80396 21.0694 5.0409 20.7533 4.47829 20.1907C3.91568 19.6281 3.59961 18.8651 3.59961 18.0694V7.26941C3.59961 6.47376 3.91568 5.7107 4.47829 5.14809C5.0409 4.58548 5.80396 4.26941 6.59961 4.26941H17.3996ZM8.39961 13.8694C8.08135 13.8694 7.77612 13.9958 7.55108 14.2209C7.32604 14.4459 7.19961 14.7511 7.19961 15.0694C7.19961 15.3877 7.32604 15.6929 7.55108 15.9179C7.77612 16.143 8.08135 16.2694 8.39961 16.2694C8.71787 16.2694 9.02309 16.143 9.24814 15.9179C9.47318 15.6929 9.59961 15.3877 9.59961 15.0694C9.59961 14.7511 9.47318 14.4459 9.24814 14.2209C9.02309 13.9958 8.71787 13.8694 8.39961 13.8694ZM11.9996 13.8694C11.6813 13.8694 11.3761 13.9958 11.1511 14.2209C10.926 14.4459 10.7996 14.7511 10.7996 15.0694C10.7996 15.3877 10.926 15.6929 11.1511 15.9179C11.3761 16.143 11.6813 16.2694 11.9996 16.2694C12.3179 16.2694 12.6231 16.143 12.8481 15.9179C13.0732 15.6929 13.1996 15.3877 13.1996 15.0694C13.1996 14.7511 13.0732 14.4459 12.8481 14.2209C12.6231 13.9958 12.3179 13.8694 11.9996 13.8694ZM8.39961 9.06941C8.08135 9.06941 7.77612 9.19584 7.55108 9.42088C7.32604 9.64592 7.19961 9.95115 7.19961 10.2694C7.19961 10.5877 7.32604 10.8929 7.55108 11.1179C7.77612 11.343 8.08135 11.4694 8.39961 11.4694C8.71787 11.4694 9.02309 11.343 9.24814 11.1179C9.47318 10.8929 9.59961 10.5877 9.59961 10.2694C9.59961 9.95115 9.47318 9.64592 9.24814 9.42088C9.02309 9.19584 8.71787 9.06941 8.39961 9.06941ZM11.9996 9.06941C11.6813 9.06941 11.3761 9.19584 11.1511 9.42088C10.926 9.64592 10.7996 9.95115 10.7996 10.2694C10.7996 10.5877 10.926 10.8929 11.1511 11.1179C11.3761 11.343 11.6813 11.4694 11.9996 11.4694C12.3179 11.4694 12.6231 11.343 12.8481 11.1179C13.0732 10.8929 13.1996 10.5877 13.1996 10.2694C13.1996 9.95115 13.0732 9.64592 12.8481 9.42088C12.6231 9.19584 12.3179 9.06941 11.9996 9.06941ZM15.5996 9.06941C15.2813 9.06941 14.9761 9.19584 14.7511 9.42088C14.526 9.64592 14.3996 9.95115 14.3996 10.2694C14.3996 10.5877 14.526 10.8929 14.7511 11.1179C14.9761 11.343 15.2813 11.4694 15.5996 11.4694C15.9179 11.4694 16.2231 11.343 16.4481 11.1179C16.6732 10.8929 16.7996 10.5877 16.7996 10.2694C16.7996 9.95115 16.6732 9.64592 16.4481 9.42088C16.2231 9.19584 15.9179 9.06941 15.5996 9.06941Z" fill="black"/>
</svg>
