<svg width="24" height="25" viewBox="0 0 24 25" fill="none" xmlns="http://www.w3.org/2000/svg">
<g id="24pxWeek">
<path id="Vector" d="M17.75 3.66943C18.612 3.66943 19.4386 4.01184 20.0481 4.62134C20.6576 5.23083 21 6.05748 21 6.91943V18.4194C21 19.2814 20.6576 20.108 20.0481 20.7175C19.4386 21.327 18.612 21.6694 17.75 21.6694H6.25C5.38805 21.6694 4.5614 21.327 3.9519 20.7175C3.34241 20.108 3 19.2814 3 18.4194V6.91943C3 6.05748 3.34241 5.23083 3.9519 4.62134C4.5614 4.01184 5.38805 3.66943 6.25 3.66943H17.75ZM8.493 8.31743C8.4671 8.12918 8.37071 7.95778 8.2233 7.83787C8.07589 7.71795 7.88846 7.65846 7.69888 7.67141C7.5093 7.68436 7.3317 7.76879 7.20197 7.90764C7.07224 8.04649 7.00006 8.22941 7 8.41943V9.41943L7.007 9.52143C7.0329 9.70968 7.12929 9.88108 7.2767 10.001C7.42411 10.1209 7.61154 10.1804 7.80112 10.1675C7.9907 10.1545 8.1683 10.0701 8.29803 9.93122C8.42776 9.79237 8.49994 9.60946 8.5 9.41943V8.41943L8.493 8.31743ZM8.493 15.8174C8.4671 15.6292 8.37071 15.4578 8.2233 15.3379C8.07589 15.2179 7.88846 15.1585 7.69888 15.1714C7.5093 15.1844 7.3317 15.2688 7.20197 15.4076C7.07224 15.5465 7.00006 15.7294 7 15.9194V16.9194L7.007 17.0214C7.0329 17.2097 7.12929 17.3811 7.2767 17.501C7.42411 17.6209 7.61154 17.6804 7.80112 17.6675C7.9907 17.6545 8.1683 17.5701 8.29803 17.4312C8.42776 17.2924 8.49994 17.1095 8.5 16.9194V15.9194L8.493 15.8174ZM7.757 11.3424C7.55809 11.3424 7.36732 11.4215 7.22667 11.5621C7.08602 11.7028 7.007 11.8935 7.007 12.0924L7 13.2394L7.007 13.3414C7.0329 13.5297 7.12929 13.7011 7.2767 13.821C7.42411 13.9409 7.61154 14.0004 7.80112 13.9875C7.9907 13.9745 8.1683 13.8901 8.29803 13.7512C8.42776 13.6124 8.49994 13.4295 8.5 13.2394L8.507 12.0914L8.5 11.9894C8.47535 11.8099 8.38652 11.6453 8.24993 11.5262C8.11334 11.4071 7.93824 11.3414 7.757 11.3414V11.3424Z" fill="black"/>
</g>
</svg>
