<svg width="601" height="268" viewBox="0 0 601 268" fill="none" xmlns="http://www.w3.org/2000/svg">
<g clip-path="url(#clip0_659_4809)">
<rect width="600" height="267" transform="translate(0.757935 0.917969)" fill="#E9F3FF"/>
<g clip-path="url(#clip1_659_4809)">
<path d="M237.2 170.801V110.873H179.976C175.605 110.873 171.677 114.072 171.273 118.446C170.792 123.456 174.719 127.657 179.61 127.657H207.683C210.417 127.657 212.92 129.506 213.44 132.185C214.133 135.808 211.38 138.968 207.895 138.968H194.34C189.969 138.968 186.041 142.166 185.637 146.541C185.155 151.551 189.083 155.751 193.974 155.751H208.491C210.994 155.751 213.266 157.543 213.517 160.048C213.806 162.92 211.572 165.328 208.761 165.328H194.34C189.969 165.328 186.041 168.527 185.637 172.901C185.155 177.911 189.083 182.112 193.974 182.112H218.35C221.411 182.112 223.895 184.598 223.895 187.661C223.895 190.725 221.411 193.211 218.35 193.211H167.672C163.302 193.211 159.374 196.41 158.969 200.784C158.488 205.794 162.416 209.994 167.307 209.994H256.05C258.726 209.994 261.19 211.806 261.691 214.446C262.365 217.991 259.669 221.074 256.261 221.074H222.297C217.926 221.074 213.998 224.273 213.594 228.647C213.112 233.657 217.04 237.858 221.931 237.858H288.84V170.801H237.18H237.2Z" fill="#4976BA"/>
<path d="M302.703 183.018H289.032V267.918H302.703V183.018Z" fill="#375895"/>
<path d="M295.867 267.918V210.149C295.867 207.74 297.812 205.794 300.219 205.794H302.703V183.018H289.032V267.918H295.867Z" fill="#2C4773"/>
<path d="M359.137 178.778V91.9502H260.613C238.047 91.9502 219.755 110.256 219.755 132.84V173.806C219.755 175.637 220.314 177.333 221.218 178.778H359.118H359.137Z" fill="#CDDFFA"/>
<path d="M220.776 123.841C220.121 126.731 219.755 129.737 219.755 132.84V173.806C219.755 178.893 223.876 183.017 228.959 183.017H359.137V123.841H220.776Z" fill="#B9D1EF"/>
<path d="M359.137 178.509V160.106H219.755V173.788C219.755 175.522 220.256 177.121 221.084 178.489H359.137V178.509Z" fill="#A7C2DF"/>
<path d="M356.249 91.9502H362.006C382.974 91.9502 399.975 108.984 399.975 129.949V178.469H318.26V129.949C318.26 108.965 335.281 91.9502 356.229 91.9502H356.249Z" fill="#2C4773"/>
<path d="M399.994 175.637H180.226C181.073 179.837 184.789 183.017 189.256 183.017H399.994V175.637Z" fill="#456FA6"/>
<path d="M406.214 92.8365C408.957 92.8365 411.181 90.6107 411.181 87.865C411.181 85.1194 408.957 82.8936 406.214 82.8936C403.47 82.8936 401.246 85.1194 401.246 87.865C401.246 90.6107 403.47 92.8365 406.214 92.8365Z" stroke="#A7C2DF" stroke-width="1.5" stroke-linecap="round" stroke-linejoin="round"/>
<path d="M163.899 183.441C166.642 183.441 168.866 181.215 168.866 178.47C168.866 175.724 166.642 173.498 163.899 173.498C161.155 173.498 158.931 175.724 158.931 178.47C158.931 181.215 161.155 183.441 163.899 183.441Z" stroke="#CDDFFA" stroke-width="1.5" stroke-linecap="round" stroke-linejoin="round"/>
<path d="M232.386 68.2109V79.946" stroke="#2C4773" stroke-width="1.5" stroke-linecap="round" stroke-linejoin="round"/>
<path d="M238.259 74.0684H226.533" stroke="#2C4773" stroke-width="1.5" stroke-linecap="round" stroke-linejoin="round"/>
<path d="M359.137 199.84V211.594" stroke="#456FA6" stroke-width="1.5" stroke-linecap="round" stroke-linejoin="round"/>
<path d="M365.01 205.717H353.264" stroke="#456FA6" stroke-width="1.5" stroke-linecap="round" stroke-linejoin="round"/>
<path d="M309.191 105.381H252.102C249.848 105.381 248.021 107.21 248.021 109.466V110.102C248.021 112.358 249.848 114.187 252.102 114.187H309.191C311.446 114.187 313.273 112.358 313.273 110.102V109.466C313.273 107.21 311.446 105.381 309.191 105.381Z" fill="#EDF4FF"/>
<path d="M292.016 134.594C286.76 134.594 282.505 138.852 282.505 144.113C282.505 149.373 286.76 153.632 292.016 153.632C297.273 153.632 301.528 149.373 301.528 144.113C301.528 138.852 297.273 134.594 292.016 134.594Z" fill="#456FA6"/>
<path d="M292.016 144.132C290.861 144.132 289.937 143.207 289.937 142.05V61.4854C289.937 60.3292 290.861 59.4043 292.016 59.4043C293.172 59.4043 294.096 60.3292 294.096 61.4854V142.05C294.096 143.207 293.172 144.132 292.016 144.132Z" fill="#375895"/>
<path d="M268.603 64.7419H289.918V79.9454H268.603C267.101 79.9454 265.869 78.7315 265.869 77.2092V67.4589C265.869 65.9559 267.082 64.7227 268.603 64.7227V64.7419Z" fill="#CDDFFA"/>
<path d="M137.578 166.504V166.331C137.578 163.806 135.537 161.764 133.015 161.764H77.5431C75.0208 161.764 72.9799 163.806 72.9799 166.331V166.504C72.9799 169.028 75.0208 171.071 77.5431 171.071H85.5144C88.0367 171.071 90.0777 173.113 90.0777 175.638C90.0777 178.162 88.0367 180.204 85.5144 180.204H64.0844C61.5621 180.204 59.5211 182.247 59.5211 184.771V184.945C59.5211 187.469 61.5621 189.512 64.0844 189.512H116.321C118.844 189.512 120.884 187.469 120.884 184.945V184.771C120.884 182.247 118.844 180.204 116.321 180.204H113.395C110.872 180.204 108.831 178.162 108.831 175.638C108.831 173.113 110.872 171.071 113.395 171.071H132.995C135.518 171.071 137.559 169.028 137.559 166.504H137.578Z" fill="#4976BA"/>
<path d="M486.042 171.417C486.042 169.471 487.621 167.891 489.565 167.891H492.762C495.438 167.891 497.614 165.713 497.614 163.035C497.614 160.356 495.438 158.179 492.762 158.179H469.233C467.346 158.179 465.806 156.637 465.806 154.749C465.806 152.861 467.346 151.319 469.233 151.319H479.919C482.595 151.319 484.771 149.142 484.771 146.463C484.771 143.785 482.595 141.607 479.919 141.607H478.263C475.625 141.607 473.488 139.468 473.488 136.828C473.488 134.189 475.625 132.05 478.263 132.05H498.653C501.33 132.05 503.505 129.872 503.505 127.194C503.505 124.515 501.33 122.338 498.653 122.338H448.323C445.646 122.338 443.471 124.515 443.471 127.194C443.471 129.872 445.646 132.05 448.323 132.05H449.112C451.75 132.05 453.887 134.189 453.887 136.828C453.887 139.468 451.75 141.607 449.112 141.607H426.816C424.139 141.607 421.964 143.785 421.964 146.463C421.964 149.142 424.139 151.319 426.816 151.319H443.509C445.396 151.319 446.936 152.861 446.936 154.749C446.936 156.637 445.396 158.179 443.509 158.179H436.866C434.19 158.179 432.014 160.356 432.014 163.035C432.014 165.713 434.19 167.891 436.866 167.891H456.14C458.085 167.891 459.664 169.471 459.664 171.417C459.664 173.363 458.085 174.943 456.14 174.943H442.412C439.735 174.943 437.56 177.121 437.56 179.799C437.56 182.477 439.735 184.655 442.412 184.655H512.516C515.193 184.655 517.369 182.477 517.369 179.799C517.369 177.121 515.193 174.943 512.516 174.943H489.546C487.601 174.943 486.023 173.363 486.023 171.417H486.042Z" fill="#4976BA"/>
<path d="M149.111 80.0219C149.111 78.9621 148.264 78.1143 147.205 78.1143H128.24V95.4567H138.483C139.542 95.4567 140.389 94.6088 140.389 93.549C140.389 92.4892 139.542 91.6413 138.483 91.6413H135.73C134.921 91.6413 134.266 90.9862 134.266 90.1769C134.266 89.3675 134.921 88.7124 135.73 88.7124H142.988C144.047 88.7124 144.895 87.8645 144.895 86.8047C144.895 85.7449 144.047 84.8971 142.988 84.8971H140.774C139.965 84.8971 139.311 84.2419 139.311 83.4326C139.311 82.6233 139.965 81.9681 140.774 81.9681H147.186C148.245 81.9681 149.092 81.1203 149.092 80.0605L149.111 80.0219Z" fill="#FDFFFF"/>
<path d="M48.7579 80.0219C48.7579 78.9621 49.6051 78.1143 50.6641 78.1143H69.6296V95.4567H59.3863C58.3273 95.4567 57.4801 94.6088 57.4801 93.549C57.4801 92.4892 58.3273 91.6413 59.3863 91.6413H62.1397C62.9483 91.6413 63.603 90.9862 63.603 90.1769C63.603 89.3675 62.9483 88.7124 62.1397 88.7124H54.8808C53.8218 88.7124 52.9746 87.8645 52.9746 86.8047C52.9746 85.7449 53.8218 84.8971 54.8808 84.8971H57.095C57.9037 84.8971 58.5584 84.2419 58.5584 83.4326C58.5584 82.6233 57.9037 81.9681 57.095 81.9681H50.6641C49.6051 81.9681 48.7579 81.1203 48.7579 80.0605V80.0219Z" fill="#FDFFFF"/>
<path d="M130.088 73.5479H67.762V110.352H130.088V73.5479Z" fill="#B6CBE2"/>
<path d="M130.107 110.352L98.9346 86.4775L67.762 110.352H130.107Z" fill="#9FB8D0"/>
<path d="M67.762 73.5479L95.931 95.1295C97.7024 96.4784 100.148 96.4784 101.919 95.1295L130.088 73.5479H67.762Z" fill="#CDDFFA"/>
<path d="M552.758 206.16C552.758 204.984 551.814 204.04 550.64 204.04H529.595V223.271H540.974C542.149 223.271 543.092 222.327 543.092 221.151C543.092 219.976 542.149 219.032 540.974 219.032H537.932C537.027 219.032 536.315 218.299 536.315 217.413C536.315 216.507 537.046 215.794 537.932 215.794H546C547.174 215.794 548.118 214.85 548.118 213.675C548.118 212.499 547.174 211.555 546 211.555H543.535C542.63 211.555 541.918 210.823 541.918 209.936C541.918 209.031 542.649 208.318 543.535 208.318H550.659C551.834 208.318 552.777 207.374 552.777 206.198L552.758 206.16Z" fill="#FDFFFF"/>
<path d="M441.449 206.16C441.449 204.984 442.392 204.04 443.567 204.04H464.612V223.271H453.233C452.058 223.271 451.115 222.327 451.115 221.151C451.115 219.976 452.058 219.032 453.233 219.032H456.275C457.18 219.032 457.892 218.299 457.892 217.413C457.892 216.507 457.16 215.794 456.275 215.794H448.207C447.033 215.794 446.089 214.85 446.089 213.675C446.089 212.499 447.033 211.555 448.207 211.555H450.672C451.577 211.555 452.289 210.823 452.289 209.936C452.289 209.031 451.557 208.318 450.672 208.318H443.548C442.373 208.318 441.43 207.374 441.43 206.198L441.449 206.16Z" fill="#FDFFFF"/>
<path d="M531.675 198.973H462.532V239.804H531.675V198.973Z" fill="#B6CBE2"/>
<path d="M531.675 239.804L497.113 213.328L462.532 239.804H531.675Z" fill="#9FB8D0"/>
<path d="M462.532 198.973L493.782 222.905C495.746 224.408 498.461 224.408 500.425 222.905L531.675 198.973H462.532Z" fill="#CDDFFA"/>
<path d="M543.035 55.6661C543.035 54.2401 541.879 53.084 540.454 53.084H514.885V76.4577H528.69C530.115 76.4577 531.27 75.3015 531.27 73.8756C531.27 72.4497 530.115 71.2935 528.69 71.2935H524.993C523.896 71.2935 523.01 70.4071 523.01 69.3088C523.01 68.2104 523.896 67.324 524.993 67.324H534.794C536.219 67.324 537.374 66.1679 537.374 64.7419C537.374 63.316 536.219 62.1598 534.794 62.1598H531.809C530.712 62.1598 529.826 61.2735 529.826 60.1751C529.826 59.0767 530.712 58.1904 531.809 58.1904H540.454C541.879 58.1904 543.035 57.0342 543.035 55.6083V55.6661Z" fill="#FDFFFF"/>
<path d="M407.773 55.6661C407.773 54.2401 408.928 53.084 410.353 53.084H435.923V76.4577H422.118C420.693 76.4577 419.538 75.3015 419.538 73.8756C419.538 72.4497 420.693 71.2935 422.118 71.2935H425.814C426.912 71.2935 427.798 70.4071 427.798 69.3088C427.798 68.2104 426.912 67.324 425.814 67.324H416.014C414.589 67.324 413.434 66.1679 413.434 64.7419C413.434 63.316 414.589 62.1598 416.014 62.1598H418.998C420.096 62.1598 420.982 61.2735 420.982 60.1751C420.982 59.0767 420.096 58.1904 418.998 58.1904H410.353C408.928 58.1904 407.773 57.0342 407.773 55.6083V55.6661Z" fill="#FDFFFF"/>
<path d="M517.407 46.918H433.401V96.5172H517.407V46.918Z" fill="#B6CBE2"/>
<path d="M517.407 96.517L475.394 64.3564L433.401 96.517H517.407Z" fill="#9FB8D0"/>
<path d="M433.401 46.918L471.37 75.9954C473.758 77.826 477.069 77.826 479.438 75.9954L517.407 46.918H433.401Z" fill="#CDDFFA"/>
<path d="M345.043 130.798H373.231C375.869 130.798 377.987 132.937 377.987 135.557C377.987 138.197 375.85 140.317 373.231 140.317H345.043C342.405 140.317 340.287 138.178 340.287 135.557C340.287 132.917 342.424 130.798 345.043 130.798Z" fill="#476796"/>
<path d="M345.043 130.798C342.405 130.798 340.287 132.937 340.287 135.557C340.287 138.197 342.424 140.317 345.043 140.317C347.681 140.317 349.798 138.178 349.798 135.557C349.798 132.917 347.661 130.798 345.043 130.798Z" fill="#A7C2DF"/>
<path d="M381.222 156.271H337.033C334.066 156.271 331.661 158.678 331.661 161.648V162.399C331.661 165.368 334.066 167.775 337.033 167.775H381.222C384.188 167.775 386.594 165.368 386.594 162.399V161.648C386.594 158.678 384.188 156.271 381.222 156.271Z" fill="#476796"/>
<path d="M386.594 160.646H331.661C331.661 158.237 333.606 156.271 336.032 156.271H382.242C384.649 156.271 386.613 158.218 386.613 160.646H386.594Z" fill="#A7C2DF"/>
</g>
</g>
<defs>
<clipPath id="clip0_659_4809">
<rect width="600" height="267" fill="white" transform="translate(0.757935 0.917969)"/>
</clipPath>
<clipPath id="clip1_659_4809">
<rect width="504" height="221" fill="white" transform="translate(48.7579 46.918)"/>
</clipPath>
</defs>
</svg>