<svg width="57" height="57" viewBox="0 0 57 57" fill="none" xmlns="http://www.w3.org/2000/svg">
<g id="24pxDelete">
<path id="Vector" d="M47.0221 12.623C47.641 12.623 48.2345 12.8689 48.6721 13.3065C49.1096 13.744 49.3555 14.3375 49.3555 14.9564C49.3555 15.5752 49.1096 16.1687 48.6721 16.6063C48.2345 17.0439 47.641 17.2897 47.0221 17.2897H44.6888L44.6818 17.4554L42.5048 47.9544C42.421 49.1317 41.8942 50.2336 41.0304 51.0381C40.1666 51.8425 39.0301 52.2897 37.8498 52.2897H18.8588C17.6785 52.2897 16.542 51.8425 15.6782 51.0381C14.8144 50.2336 14.2876 49.1317 14.2038 47.9544L12.0268 17.4577C12.0233 17.4018 12.0217 17.3458 12.0221 17.2897H9.6888C9.06996 17.2897 8.47647 17.0439 8.03889 16.6063C7.6013 16.1687 7.35547 15.5752 7.35547 14.9564C7.35547 14.3375 7.6013 13.744 8.03889 13.3065C8.47647 12.8689 9.06996 12.623 9.6888 12.623H47.0221ZM33.0221 5.62305C33.641 5.62305 34.2345 5.86888 34.6721 6.30646C35.1096 6.74405 35.3555 7.33754 35.3555 7.95638C35.3555 8.57522 35.1096 9.16871 34.6721 9.6063C34.2345 10.0439 33.641 10.2897 33.0221 10.2897H23.6888C23.07 10.2897 22.4765 10.0439 22.0389 9.6063C21.6013 9.16871 21.3555 8.57522 21.3555 7.95638C21.3555 7.33754 21.6013 6.74405 22.0389 6.30646C22.4765 5.86888 23.07 5.62305 23.6888 5.62305H33.0221Z" fill="#ED4040"/>
</g>
</svg>
