<svg width="57" height="57" viewBox="0 0 57 57" fill="none" xmlns="http://www.w3.org/2000/svg">
<g id="24pxSuccess">
<path id="Vector" fill-rule="evenodd" clip-rule="evenodd" d="M28.929 48.0612C17.9754 48.0612 9.0957 39.1815 9.0957 28.2279C9.0957 17.2742 17.9754 8.39453 28.929 8.39453C39.8827 8.39453 48.7624 17.2742 48.7624 28.2279C48.7624 39.1815 39.8827 48.0612 28.929 48.0612ZM5.5957 28.2279C5.5957 15.3412 16.0424 4.89453 28.929 4.89453C41.8157 4.89453 52.2624 15.3412 52.2624 28.2279C52.2624 41.1145 41.8157 51.5612 28.929 51.5612C16.0424 51.5612 5.5957 41.1145 5.5957 28.2279ZM41.7051 21.656C41.7051 21.1467 41.5028 20.6583 41.1427 20.2981C40.9643 20.1196 40.7525 19.978 40.5194 19.8814C40.2863 19.7848 40.0364 19.7351 39.7841 19.7351C39.5318 19.7351 39.2819 19.7848 39.0488 19.8814C38.8157 19.978 38.6039 20.1196 38.4255 20.2981L25.2967 33.4281L19.4117 27.543C19.2345 27.3596 19.0225 27.2133 18.7882 27.1126C18.5539 27.0119 18.3018 26.959 18.0468 26.9567C17.7918 26.9545 17.5388 27.0031 17.3028 27.0997C17.0667 27.1963 16.8523 27.3389 16.6719 27.5192C16.4916 27.6996 16.349 27.914 16.2524 28.1501C16.1558 28.3861 16.1072 28.639 16.1094 28.8941C16.1117 29.1491 16.1646 29.4011 16.2653 29.6355C16.366 29.8698 16.5123 30.0818 16.6957 30.2589L23.8485 37.4104C24.0388 37.6007 24.2646 37.7517 24.5132 37.8547C24.7618 37.9577 25.0283 38.0107 25.2974 38.0107C25.5665 38.0107 25.8329 37.9577 26.0815 37.8547C26.3301 37.7517 26.556 37.6007 26.7462 37.4104L41.1427 23.014C41.5028 22.6538 41.7051 22.1653 41.7051 21.656Z" fill="#76CA66"/>
</g>
</svg>
