<svg xmlns="http://www.w3.org/2000/svg" width="16" height="16" viewBox="0 0 24 25" fill="none" >
  <path fill-rule="evenodd" clip-rule="evenodd" d="M20 12.7694C19.37 12.5494 18.7 12.4194 18 12.4194C14.69 12.4194 12 15.1094 12 18.4194C12 19.1194 12.13 19.7894 12.35 20.4194H4C3.46957 20.4194 2.96086 20.2087 2.58579 19.8336C2.21071 19.4586 2 18.9499 2 18.4194V4.41943C2 3.30943 2.89 2.41943 4 2.41943H14L20 8.41943V12.7694ZM18.5 9.41943L13 3.91943V9.41943H18.5ZM17.7656 13.9507C15.427 13.9507 13.5312 15.8464 13.5312 18.1851C13.5312 20.5237 15.427 22.4194 17.7656 22.4194C20.1043 22.4194 22 20.5237 22 18.1851C22 15.8464 20.1043 13.9507 17.7656 13.9507ZM17.6416 16.1919C17.721 16.2713 17.7656 16.379 17.7656 16.4913V18.1851H19.4594C19.5717 18.1851 19.6794 18.2297 19.7588 18.3091C19.8382 18.3885 19.8828 18.4962 19.8828 18.6085C19.8828 18.7208 19.8382 18.8285 19.7588 18.9079C19.6794 18.9873 19.5717 19.0319 19.4594 19.0319H17.3422C17.2299 19.0319 17.1222 18.9873 17.0428 18.9079C16.9634 18.8285 16.9188 18.7208 16.9188 18.6085V16.4913C16.9188 16.379 16.9634 16.2713 17.0428 16.1919C17.1222 16.1125 17.2299 16.0679 17.3422 16.0679C17.4545 16.0679 17.5622 16.1125 17.6416 16.1919Z" fill="black"/>
</svg>