<svg width="16" height="17" viewBox="0 0 16 17" fill="none" xmlns="http://www.w3.org/2000/svg">
<g id="24pxLogout">
<path id="Vector" fill-rule="evenodd" clip-rule="evenodd" d="M10.36 2.5C10.2013 2.69732 10.0819 2.92315 10.008 3.16533H9.58667C9.05623 3.16533 8.54753 3.37605 8.17245 3.75112C7.79738 4.12619 7.58667 4.6349 7.58667 5.16533C7.58667 5.69577 7.79738 6.20447 8.17245 6.57955C8.54753 6.95462 9.05623 7.16533 9.58667 7.16533H10.0067C10.1 7.46933 10.2667 7.756 10.5067 7.996C10.7017 8.19124 10.9351 8.3439 11.1921 8.4443C11.4492 8.54471 11.7243 8.59069 12 8.57933V13.1667H13.3333C13.5101 13.1667 13.6797 13.2369 13.8047 13.3619C13.9298 13.487 14 13.6565 14 13.8333C14 14.0101 13.9298 14.1797 13.8047 14.3047C13.6797 14.4298 13.5101 14.5 13.3333 14.5H2.66667C2.48986 14.5 2.32029 14.4298 2.19526 14.3047C2.07024 14.1797 2 14.0101 2 13.8333C2 13.6565 2.07024 13.487 2.19526 13.3619C2.32029 13.2369 2.48986 13.1667 2.66667 13.1667V3.83333C2.66667 3.47971 2.80714 3.14057 3.05719 2.89052C3.30724 2.64048 3.64638 2.5 4 2.5H10.36ZM9 9.16667C8.73478 9.16667 8.48043 9.27202 8.29289 9.45956C8.10536 9.6471 8 9.90145 8 10.1667C8 10.4319 8.10536 10.6862 8.29289 10.8738C8.48043 11.0613 8.73478 11.1667 9 11.1667C9.26522 11.1667 9.51957 11.0613 9.70711 10.8738C9.89464 10.6862 10 10.4319 10 10.1667C10 9.90145 9.89464 9.6471 9.70711 9.45956C9.51957 9.27202 9.26522 9.16667 9 9.16667ZM12.3913 3.28133L13.8047 4.69467C13.9294 4.81966 13.9995 4.98905 13.9995 5.16567C13.9995 5.34228 13.9294 5.51168 13.8047 5.63667L12.3913 7.052C12.3299 7.11572 12.2564 7.16655 12.175 7.20155C12.0937 7.23655 12.0063 7.255 11.9177 7.25583C11.8292 7.25666 11.7414 7.23985 11.6595 7.20639C11.5775 7.17293 11.5031 7.12348 11.4404 7.06093C11.3778 6.99838 11.3282 6.92398 11.2946 6.84207C11.2611 6.76017 11.2441 6.67239 11.2448 6.58387C11.2455 6.49536 11.2639 6.40786 11.2988 6.3265C11.3336 6.24514 11.3844 6.17154 11.448 6.11L11.7253 5.832H9.58667C9.40986 5.832 9.24029 5.76176 9.11526 5.63674C8.99024 5.51171 8.92 5.34214 8.92 5.16533C8.92 4.98852 8.99024 4.81895 9.11526 4.69393C9.24029 4.5689 9.40986 4.49867 9.58667 4.49867H11.7233L11.4487 4.224C11.3272 4.09827 11.26 3.92986 11.2616 3.75507C11.2631 3.58027 11.3332 3.41306 11.4568 3.28945C11.5804 3.16585 11.7476 3.09574 11.9224 3.09422C12.0972 3.0927 12.2656 3.15989 12.3913 3.28133Z" fill="white"/>
</g>
</svg>
