<svg width="57" height="57" viewBox="0 0 57 57" fill="none" xmlns="http://www.w3.org/2000/svg">
<g id="24pxFaild">
<path id="Vector" fill-rule="evenodd" clip-rule="evenodd" d="M28.5033 48.0612C17.5496 48.0612 8.66992 39.1815 8.66992 28.2279C8.66992 17.2742 17.5496 8.39453 28.5033 8.39453C39.4569 8.39453 48.3366 17.2742 48.3366 28.2279C48.3366 39.1815 39.4569 48.0612 28.5033 48.0612ZM5.16992 28.2279C5.16992 15.3412 15.6166 4.89453 28.5033 4.89453C41.3899 4.89453 51.8366 15.3412 51.8366 28.2279C51.8366 41.1145 41.3899 51.5612 28.5033 51.5612C15.6166 51.5612 5.16992 41.1145 5.16992 28.2279ZM22.1574 19.4071C21.4739 18.7237 20.3659 18.7237 19.6825 19.4071C18.9991 20.0905 18.9991 21.1986 19.6825 21.882L26.0284 28.2279L19.6825 34.5738C18.9991 35.2572 18.9991 36.3652 19.6825 37.0486C20.3659 37.732 21.4739 37.732 22.1574 37.0486L28.5033 30.7027L34.8491 37.0486C35.5326 37.732 36.6406 37.732 37.324 37.0486C38.0074 36.3652 38.0074 35.2572 37.324 34.5738L30.9781 28.2279L37.324 21.882C38.0074 21.1986 38.0074 20.0905 37.324 19.4071C36.6406 18.7237 35.5326 18.7237 34.8491 19.4071L28.5033 25.753L22.1574 19.4071Z" fill="#ED4040"/>
</g>
</svg>
