<svg width="57" height="57" viewBox="0 0 57 57" fill="none" xmlns="http://www.w3.org/2000/svg">
<g id="24pxmail">
<path id="Vector" d="M47.1667 10.1465H9.83335C7.26669 10.1465 5.19002 12.2465 5.19002 14.8132L5.16669 42.8132C5.16669 45.3798 7.26669 47.4798 9.83335 47.4798H47.1667C49.7334 47.4798 51.8334 45.3798 51.8334 42.8132V14.8132C51.8334 12.2465 49.7334 10.1465 47.1667 10.1465ZM46.2334 20.0632L29.7367 30.3765C28.99 30.8432 28.01 30.8432 27.2634 30.3765L10.7667 20.0632C10.5327 19.9318 10.3278 19.7544 10.1644 19.5415C10.001 19.3287 9.8825 19.085 9.81603 18.825C9.74956 18.5651 9.73653 18.2943 9.77772 18.0292C9.81891 17.7641 9.91347 17.51 10.0557 17.2825C10.1979 17.055 10.3848 16.8587 10.605 16.7055C10.8253 16.5523 11.0744 16.4453 11.3372 16.3912C11.6 16.337 11.871 16.3367 12.1339 16.3904C12.3968 16.444 12.6461 16.5504 12.8667 16.7032L28.5 26.4798L44.1334 16.7032C44.3539 16.5504 44.6032 16.444 44.8661 16.3904C45.129 16.3367 45.4001 16.337 45.6629 16.3912C45.9257 16.4453 46.1747 16.5523 46.395 16.7055C46.6153 16.8587 46.8022 17.055 46.9444 17.2825C47.0866 17.51 47.1811 17.7641 47.2223 18.0292C47.2635 18.2943 47.2505 18.5651 47.184 18.825C47.1175 19.085 46.999 19.3287 46.8356 19.5415C46.6722 19.7544 46.4673 19.9318 46.2334 20.0632Z" fill="#0066FF"/>
</g>
</svg>
